# xmcd
#
# Track frame offsets:
# 150
# 12537
# 31795
# 52217
# 71922
# 93260
# 115977
# 135485
# 158010
# 178830
# 194575
# 219475
# 238240
#
# Disc length: 3497 seconds
#
#
# Revision: 0
# Processed by: cddbd v1.4PL0 Copyright (c) Steve Scherf et al.
# Submitted via: FreeRIP 2.52 
#
DISCID=bf0da70d
DTITLE=R. Kelly - R.[CD2]
DYEAR=1998
DGENRE=R&B
TTITLE0=01-The Chase
TTITLE1=02-V.I.P.
TTITLE2=03-Did You Ever Think
TTITLE3=04-Dollar Bill - Feat. Foxy Brown
TTITLE4=05-Reality
TTITLE5=06-2nd Kelly
TTITLE6=07-Ghetto Queen - Feat. Crucial Conflict
TTITLE7=08-Down Low Double Life
TTITLE8=09-Looking For Love
TTITLE9=10-Dancing With A Rich Man
TTITLE10=11-I'm Your Angel
TTITLE11=12-Money Makes The World Go Round - Feat. NAS
TTITLE12=13-I believe I Can Fly
EXTD=
EXTT0=
EXTT1=
EXTT2=
EXTT3=
EXTT4=
EXTT5=
EXTT6=
EXTT7=
EXTT8=
EXTT9=
EXTT10=
EXTT11=
EXTT12=
PLAYORDER=
